<?xml version="1.0" encoding="utf-8"?>
<!-- Generator: Adobe Illustrator 16.0.0, SVG Export Plug-In . SVG Version: 6.00 Build 0)  -->
<!DOCTYPE svg PUBLIC "-//W3C//DTD SVG 1.1//EN" "http://www.w3.org/Graphics/SVG/1.1/DTD/svg11.dtd">
<svg version="1.1" id="Layer_1" xmlns="http://www.w3.org/2000/svg" xmlns:xlink="http://www.w3.org/1999/xlink" x="0px" y="0px"
	 width="600px" height="600px" viewBox="0 0 600 600" enable-background="new 0 0 600 600" xml:space="preserve">
<ellipse fill="#FFFFFF" stroke="#2B2B2B" stroke-width="30" stroke-miterlimit="10" cx="300" cy="298.5" rx="284" ry="284.5"/>
<path fill="#2B2B2B" stroke="#444444" stroke-miterlimit="10" d="M436.5,309c0,6.627-3.436,12.5-8.289,12.5H185.789
	c-4.854,0-9.289-5.873-9.289-12.5v-18c0-6.627,4.435-11.5,9.289-11.5h242.422c4.854,0,8.289,4.873,8.289,11.5V309z"/>
<path fill="#2B2B2B" stroke="#444444" stroke-miterlimit="10" d="M315.2,170.513c6.628,0.01,12.495,3.455,12.487,8.309
	l-0.374,242.421c-0.009,4.854-5.889,9.28-12.515,9.27l-18-0.027c-6.627-0.011-11.493-4.451-11.485-9.307l0.374-242.422
	c0.007-4.853,4.885-8.281,11.512-8.271L315.2,170.513z"/>
</svg>
